<svg id="Layer_1" enable-background="new 0 0 508.363 508.363" height="512" viewBox="0 0 508.363 508.363" width="512" xmlns="http://www.w3.org/2000/svg"><g><path d="m296.315 476.363h-26.133v-337.79c0-8.837-7.164-16-16-16s-16 7.163-16 16v337.79h-26.133c-8.836 0-16 7.163-16 16s7.164 16 16 16h84.267c8.836 0 16-7.163 16-16s-7.165-16-16.001-16z" fill="#5b5b5b"/></g><g><path d="m331.025 121.573c-8.836 0-16 7.163-16 16v31.945c0 8.837 7.164 16 16 16s16-7.163 16-16v-31.945c0-8.837-7.163-16-16-16z" fill="#5b5b5b"/></g><g><path d="m375.492 133.51-31.918-121.573c-1.847-7.034-8.204-11.937-15.476-11.937h-147.833c-7.272 0-13.629 4.903-15.476 11.937l-31.918 121.573c-2.66 10.135 4.994 20.063 15.476 20.063h211.67c10.478 0 18.136-9.925 15.475-20.063z" fill="#f0a567"/></g><g><path d="m343.574 11.937c-1.847-7.034-8.204-11.937-15.476-11.937h-147.833c-7.272 0-13.629 4.903-15.476 11.937l-27.171 103.49c38.57 5.072 85.797 2.869 129.055-22.412 31.628-18.484 62.634-27.572 89.92-31.487z" fill="#fdaa6a"/></g><g><path d="m343.574 11.937c-1.847-7.034-8.204-11.937-15.476-11.937h-147.833c-7.272 0-13.629 4.903-15.476 11.937l-2.72 10.359c16.01-6.045 33.921-7.106 49.821 5.472 25.273 19.992 88.682 6.466 134-7.005z" fill="#f9b78a"/></g></svg>