<svg fill="none" height="512" viewBox="0 0 32 32" width="512" xmlns="http://www.w3.org/2000/svg"><rect fill="#e3f8fb" height="30" rx="6" width="30" x="1" y="1"/><g clip-rule="evenodd" fill-rule="evenodd"><path d="m17.5597 9.06474c.1779.09522.289.28062.289.48241v13.13155c0 .2018-.1111.3872-.289.4824s-.3938.0848-.5617-.0272l-3.7274-2.4849c-.5582-.3721-.8934-.9985-.8934-1.6693v-5.7336c0-.6708.3352-1.2972.8934-1.6692l3.7274-2.48501c.1679-.11193.3838-.12236.5617-.02715zm-.8053 1.50476-2.8768 1.9179c-.2537.1691-.4061.4538-.4061.7587v5.7336c0 .3049.1524.5896.4061.7587l2.8768 1.9179z" fill="#8de2ec"/><path d="m10.0062 11.9181c-1.10799 0-2.0062.8982-2.0062 2.0062v4.3772c0 1.108.89821 2.0062 2.0062 2.0062h2.9181c.3022 0 .5472-.245.5472-.5471v-7.2953c0-.3022-.245-.5472-.5472-.5472z" fill="#25c6da"/><path d="m19.7442 14.1785c.2137-.2137.5601-.2137.7738 0l3.0951 3.0951c.2137.2137.2137.5601 0 .7738-.2137.2136-.5601.2136-.7738 0l-3.0951-3.0952c-.2137-.2136-.2137-.5601 0-.7737z" fill="#8de2ec"/><path d="m19.7442 18.0474c-.2137-.2137-.2137-.5602 0-.7738l3.0951-3.0952c.2137-.2136.5601-.2136.7738 0 .2137.2137.2137.5601 0 .7738l-3.0951 3.0952c-.2137.2136-.5601.2136-.7738 0z" fill="#8de2ec"/></g></svg>