<?xml version="1.0"?>
<svg xmlns="http://www.w3.org/2000/svg" xmlns:xlink="http://www.w3.org/1999/xlink" xmlns:svgjs="http://svgjs.com/svgjs" version="1.1" width="512" height="512" x="0" y="0" viewBox="0 0 32 32" style="enable-background:new 0 0 512 512" xml:space="preserve" class=""><g><rect xmlns="http://www.w3.org/2000/svg" fill="#fffadd" height="30" rx="6" width="30" x="1" y="1" data-original="#fffadd" style="" class=""/><g xmlns="http://www.w3.org/2000/svg" clip-rule="evenodd" fill-rule="evenodd"><path d="m20.7519 8.07282c.2001.10709.325.31561.325.54257v14.76921c0 .227-.1249.4355-.325.5426s-.4429.0953-.6317-.0306l-4.1923-2.7948c-.6278-.4185-1.0048-1.123-1.0048-1.8775v-6.4486c0-.7545.377-1.459 1.0048-1.8775l4.1923-2.79485c.1888-.12589.4316-.13762.6317-.03053zm-.9057 1.69242-3.2356 2.15706c-.2853.1902-.4567.5105-.4567.8534v6.4486c0 .3429.1714.6632.4567.8534l3.2356 2.1571z" fill="#fae780" data-original="#fae780" style="" class=""/><path d="m12.2564 11.2821c-1.2462 0-2.2564 1.0102-2.2564 2.2564v4.9231c0 1.2461 1.0102 2.2564 2.2564 2.2564h3.2821c.3398 0 .6153-.2755.6153-.6154v-8.2051c0-.3399-.2755-.6154-.6153-.6154z" fill="#ffd200" data-original="#ffd200" style="" class=""/></g></g></svg>
