<svg height="512" viewBox="0 0 58 59" width="512" xmlns="http://www.w3.org/2000/svg"><g id="Page-1" fill="none" fill-rule="evenodd"><g id="040---Trash" fill-rule="nonzero" transform="translate(-1)"><path id="Shape" d="m8 5c-.33427853.00005002-.64647542-.16693028-.832-.445l-2-3c-.30651804-.45950091-.18250091-1.08048196.277-1.387s1.08048196-.18250091 1.387.277l1.168 1.755 1.168-1.755c.1982824-.29724498.5400812-.46612827.8966441-.44303316s.6737195.23465992.832.55500001.1336383.70078818-.0646441.99803315l-2 3c-.18552458.27806972-.49772147.44505002-.832.445z" fill="#9fc9d3"/><path id="Shape" d="m27 16c-.3342785.00005-.6464754-.1669303-.832-.445l-2-3c-.306518-.4595009-.1825009-1.080482.277-1.387s1.080482-.1825009 1.387.277l1.168 1.755 1.168-1.752c.1982824-.297245.5400812-.4661282.8966441-.4430331s.6737195.2346599.832.555c.1582805.32034.1336383.7007881-.0646441.9980331l-2 3c-.1862103.2769281-.4982891.44272-.832.442z" fill="#9fc9d3"/><path id="Shape" d="m45 5c-.3342785.00005002-.6464754-.16693028-.832-.445l-2-3c-.306518-.45950091-.1825009-1.08048196.277-1.387s1.080482-.18250091 1.387.277l1.168 1.755 1.168-1.755c.306518-.45950088.9274991-.58351798 1.387-.27699996.4595009.30651803.583518.92749905.277 1.38699996l-2 3c-.1855246.27806972-.4977215.44505002-.832.445z" fill="#9fc9d3"/><path id="Shape" d="m24.25 30.27v-.01c.8523523-2.8599032 3.6769587-4.6587053 6.6289834-4.2215544 2.9520246.4371508 5.1340872 2.9773661 5.1210166 5.9615544.0028879.4102716-.0407237.8195492-.13 1.22.3591676-.1448009.7427425-.2194792 1.13-.22 1.4431812-.0008054 2.6805465 1.0303323 2.94 2.45.6476358-.2924264 1.3494178-.4457283 2.06-.45 2.7614237 0 5 2.2385763 5 5-.0100971.1975481-.0301223.3944635-.06.59 2.4011298-2.121624 6.0455836-1.9822111 8.2776148.3166473 2.2320311 2.2988584 2.2639007 5.9458385.0723852 8.2833527 2.4252555.6417885 3.9964672 2.9850123 3.6693881 5.4723354-.3270792 2.4873231-2.4506618 4.3446871-4.9593881 4.3376646h-48c-2.5087263.0070225-4.63230887-1.8503415-4.95938805-4.3376646-.32707919-2.4873231 1.2441325-4.8305469 3.66938805-5.4723354-1.68470961-1.7267802-2.17135865-4.2946415-1.23527995-6.5181012.93607869-2.2234596 3.1128097-3.6700354 5.52527995-3.6718988.51323353-.0001036 1.0242621.067137 1.52.2h.01z" fill="#805333"/><path id="Shape" d="m11.7322127 28.1902522h10c1.6568542 0 3 1.3431457 3 3v5c0 1.1045695-.8954305 2-2 2h-12c-1.10456954 0-2.00000004-.8954305-2.00000004-2v-5c0-1.6568543 1.34314574-3 3.00000004-3z" fill="#84b5cb" transform="matrix(.972 -.237 .237 .972 -7.377 4.901)"/><path id="Shape" d="m12.95 51.48-1.39-5.71c-.2589043-1.0736616.3978599-2.1548653 1.47-2.42l11.66-2.84c1.0736616-.2589043 2.1548653.3978599 2.42 1.47l1.24 5.1-8.35 3.92z" fill="#84b5cb"/><rect id="Rectangle-path" fill="#9fc9d3" height="4" rx="2" transform="matrix(.972 -.237 .237 .972 -8.939 5.486)" width="16" x="10.388" y="37.99"/><path id="Shape" d="m12.8399587 22.4165357h4c.5522848 0 1 .4477152 1 1v5h-6v-5c0-.5522848.4477153-1 1-1z" fill="#e57e25" transform="matrix(.972 -.237 .237 .972 -5.592 4.232)"/><path id="Shape" d="m10 53.994c-.40188972-.0016616-.76373692-.2437563-.91862095-.6146054s-.07270769-.7983888.20862095-1.0853946c.134-.133 3.281-3.171 11.206-2.356.924-1.25 3.594-3.938 9.504-3.938.5522847 0 1 .4477153 1 1s-.4477153 1-1 1c-6.225 0-8.036 3.314-8.11 3.456-.1949867.3708156-.5977716.5837275-1.014.536-7.32-.915-10.149 1.7-10.177 1.723-.1881251.1799376-.4386777.2799436-.699.279z" fill="#a56a43"/><g fill="#cf976a"><circle id="Oval" cx="29" cy="53" r="1"/><circle id="Oval" cx="17" cy="55" r="1"/><circle id="Oval" cx="30" cy="32" r="1"/><circle id="Oval" cx="33" cy="40" r="1"/><circle id="Oval" cx="45" cy="54" r="1"/><circle id="Oval" cx="49" cy="47" r="1"/></g><path id="Shape" d="m50.956 20.7c2.2531186 1.0308484 4.4122624 2.2558019 6.453 3.661.3006196.2068131.6896572.2346311 1.0166441.0726948.3269869-.1619364.5406521-.4882358.5583559-.8526948.24-4.482-2.308-9.071-4.724-10.167s-7.534.009-10.747 3.133c-.2687656.2504242-.3796623.6274351-.2892932.9834978.0903692.3560627.367634.6345577.7232932.7265022 2.4027362.6096085 4.7479048 1.4270214 7.009 2.443z" fill="#4482c3"/><path id="Rectangle-path" d="m34.761 30.139h22.927v2.001h-22.927z" fill="#95a5a5" transform="matrix(.413 -.911 .911 .413 -1.223 60.382)"/><path id="Shape" d="m56.176 29.555c-.2250863-.0001713-.4435323-.0762751-.62-.216-2.0715468-1.5929993-4.3052175-2.9632342-6.664-4.088-2.4000518-1.0340155-4.9025982-1.8116618-7.466-2.32-.5434482-.0991351-.9036351-.6200518-.8045-1.1635s.6200518-.9036351 1.1635-.8045c2.7256319.533566 5.3854701 1.360721 7.933 2.467 2.5103589 1.1876731 4.884844 2.6434786 7.082 4.342.3331636.2646675.4623625.711174.3220105 1.1128556-.1403521.4016816-.5195147.6705609-.9450105.6701444z" fill="#ecf0f1"/><path id="Shape" d="m53.613 32.785c-.2368089.0001505-.4658918-.0842485-.646-.238-1.7566283-1.4420053-3.6796592-2.6684076-5.728-3.653-2.0895461-.8927189-4.2789642-1.5306417-6.521-1.9-.3592324-.0457395-.6656669-.2821187-.8011132-.6179675-.1354462-.3358487-.0787374-.718682.1482543-1.000843s.588793-.4195549.9458589-.3591895c2.4267805.3943573 4.7958804 1.0855407 7.054 2.058 2.220587 1.0578712 4.3028415 2.3844688 6.2 3.95.3204701.271493.4371361.7143091.2920395 1.1084621-.1450966.3941529-.5210295.6556322-.9410395.6545379z" fill="#ecf0f1"/><path id="Shape" d="m50.141 35.6c-.2720909.000017-.532441-.1108395-.721-.307-1.1195458-1.1212315-2.4141415-2.052746-3.833-2.758-1.4646389-.6047535-3.0186498-.9648786-4.6-1.066-.5522847-.0121503-.9901502-.4697153-.978-1.022.0121503-.5522847.4697153-.9901503 1.022-.978h.046c1.8353583.1121758 3.638811.5320236 5.335 1.242 1.6516194.808068 3.1555909 1.8881284 4.449 3.195.2771146.2890869.3550458.7156144.1980615 1.0840159s-.5186072.6076248-.9190615.6079841z" fill="#ecf0f1"/><circle id="Oval" cx="51.698" cy="16.641" fill="#393f4a" r="1"/><path id="Shape" d="m44 44c-.2651948-.0000566-.5195073-.1054506-.707-.293-1.4-1.4-4.293-1.707-5.293-1.707-.5522847 0-1-.4477153-1-1s.4477153-1 1-1c.181 0 4.44.026 6.707 2.293.2859079.2859943.3714219.7160366.216678 1.0896546-.1547439.3736179-.5192821.6172591-.923678.6173454z" fill="#a56a43"/><circle id="Oval" cx="37" cy="49" fill="#cf976a" r="2"/><rect id="Rectangle-path" fill="#464f5d" height="4" rx="2" width="6" x="5" y="4"/><rect id="Rectangle-path" fill="#464f5d" height="4" rx="2" width="6" x="24" y="15"/><rect id="Rectangle-path" fill="#464f5d" height="4" rx="2" width="6" x="42" y="4"/></g></g></svg>