<svg id="Capa_1" enable-background="new 0 0 512 512" height="512" viewBox="0 0 512 512" width="512" xmlns="http://www.w3.org/2000/svg"><g><path id="XMLID_47_" d="m105.188 481.875h-45.188v-70.25h75.312z" fill="#8d5b4a"/><path id="XMLID_1_" d="m406.812 481.875h45.188v-70.25h-75.312z" fill="#7d4d3e"/><path id="XMLID_288_" d="m0 30.125v391.5h512c0-17.069 0-375.844 0-391.5z" fill="#7d4d3e"/><path id="XMLID_291_" d="m256 30.125v391.5h256c0-17.069 0-375.844 0-391.5z" fill="#58332a"/><path id="XMLID_295_" d="m271 180.625h211v90.5h-211z" fill="#8d5b4a"/><path id="XMLID_298_" d="m361.438 210.875h30.125v30h-30.125z" fill="#58332a"/><path id="XMLID_301_" d="m30 180.625h211v90.5h-211z" fill="#b57a6a"/><path id="XMLID_304_" d="m120.438 210.875h30.125v30h-30.125z" fill="#7d4d3e"/><path id="XMLID_307_" d="m271 301.125h211v90.5h-211z" fill="#8d5b4a"/><path id="XMLID_310_" d="m361.438 331.375h30.125v30h-30.125z" fill="#58332a"/><path id="XMLID_313_" d="m30 301.125h211v90.5h-211z" fill="#b57a6a"/><path id="XMLID_316_" d="m120.438 331.375h30.125v30h-30.125z" fill="#7d4d3e"/><path id="XMLID_319_" d="m30 60.125h84.779v90.5h-84.779z" fill="#8d5b4a"/><path id="XMLID_322_" d="m398.945 60.125h83.055v90.5h-83.055z" fill="#7d4d3e"/><path id="XMLID_325_" d="m105.312 60.125h301.375v90.5h-301.375z" fill="#b57a6a"/><path id="XMLID_328_" d="m256 60.125h150.688v90.5h-150.688z" fill="#8d5b4a"/><path id="XMLID_331_" d="m240.938 90.375h30.125v30h-30.125z" fill="#7d4d3e"/><path id="XMLID_3_" d="m256 90.375h15.062v30h-15.062z" fill="#58332a"/></g></svg>