<svg id="Layer_1" enable-background="new 0 0 512 512" height="512" viewBox="0 0 512 512" width="512" xmlns="http://www.w3.org/2000/svg"><g fill="#ffda2d"><path d="m271 0h-30c0 66.299-53.699 121-120 121v30c66.301 0 120 53.699 120 120h30c0-66.301 53.699-120 120-120v-30c-66.301 0-120-54.701-120-121z"/><path d="m391 301h-30c0 49.499-40.499 90-90 90v30c49.501 0 90 41.499 90 91h30c0-49.501 40.499-91 90-91v-30c-49.501 0-90-40.501-90-90z"/><path d="m121 241h-30c0 32.999-27.001 60-60 60v30c32.999 0 60 26.999 60 60h30c0-33.001 27.001-60 60-60v-30c-32.999 0-60-27.001-60-60z"/><path d="m181 421h30v30h-30z"/></g><path d="m421 241h30v30h-30z" fill="#fdbf00"/><path d="m61 61h30v30h-30z" fill="#ffda2d"/><path d="m361 0h30v30h-30z" fill="#fdbf00"/><path d="m181 301v30c-32.999 0-60 26.999-60 60h-15v-150h15c0 32.999 27.001 60 60 60z" fill="#fdbf00"/><path d="m391 121v30c-66.301 0-120 53.699-120 120h-15v-271h15c0 66.299 53.699 121 120 121z" fill="#fdbf00"/><path d="m481 391v30c-49.501 0-90 41.499-90 91h-15v-211h15c0 49.499 40.499 90 90 90z" fill="#fdbf00"/></svg>