<svg id="Capa_1" enable-background="new 0 0 512 512" height="512" viewBox="0 0 512 512" width="512" xmlns="http://www.w3.org/2000/svg"><g><g><g><path d="m165 271h-90c-8.284 0-15-6.716-15-15v-30c0-8.271-6.729-15-15-15-8.284 0-15-6.716-15-15v-30c0-24.813 20.187-45 45-45h60c8.284 0 15 6.716 15 15v90c0 8.271 6.729 15 15 15 8.284 0 15 6.716 15 15s-6.716 15-15 15z" fill="#ffb64c"/></g></g><g><g><path d="m437 271h-90c-8.284 0-15-6.716-15-15s6.716-15 15-15c8.271 0 15-6.729 15-15v-90c0-8.284 6.716-15 15-15h60c24.813 0 45 20.187 45 45v30c0 8.284-6.716 15-15 15-8.271 0-15 6.729-15 15v30c0 8.284-6.716 15-15 15z" fill="#e68a44"/></g></g><path d="m392 121v90c0 16.57-13.43 30-30 30l-106 15-106-15c-16.57 0-30-13.43-30-30v-90c0-16.57 13.43-30 30-30h76c16.57 0 30 13.43 30 30 0-16.57 13.43-30 30-30h76c16.57 0 30 13.43 30 30z" fill="#ffd396"/><path d="m392 121v90c0 16.57-13.43 30-30 30l-106 15v-135c0-16.57 13.43-30 30-30h76c16.57 0 30 13.43 30 30z" fill="#ffb64c"/><g><g><path d="m437 241h-362c-8.28 0-15 6.72-15 15v60c0 8.28 6.72 15 15 15h362c8.28 0 15-6.72 15-15v-60c0-8.28-6.72-15-15-15z" fill="#fff5f5"/></g></g><path d="m452 256v60c0 8.28-6.72 15-15 15h-181v-90h181c8.28 0 15 6.72 15 15z" fill="#efe2dd"/><g><path d="m75 421c-8.284 0-15-6.716-15-15v-30c0-8.284 6.716-15 15-15s15 6.716 15 15v30c0 8.284-6.716 15-15 15z" fill="#704c55"/></g><g><path d="m437 421c-8.284 0-15-6.716-15-15v-30c0-8.284 6.716-15 15-15s15 6.716 15 15v30c0 8.284-6.716 15-15 15z" fill="#5b362a"/></g><g><g><path d="m75 316h-60c-8.284 0-15-6.716-15-15v-75c0-24.813 20.187-45 45-45s45 20.187 45 45v75c0 8.284-6.716 15-15 15z" fill="#ffd396"/></g></g><g><g><path d="m497 316h-60c-8.284 0-15-6.716-15-15v-75c0-24.813 20.187-45 45-45s45 20.187 45 45v75c0 8.284-6.716 15-15 15z" fill="#ffb64c"/></g></g><g><g><path d="m0 301v75c0 8.28 6.72 15 15 15h482c8.28 0 15-6.72 15-15v-75z" fill="#ffb64c"/></g></g><path d="m512 301v75c0 8.28-6.72 15-15 15h-241v-90z" fill="#e68a44"/></g></svg>