<?xml version="1.0" encoding="iso-8859-1"?>
<!-- Generator: Adobe Illustrator 19.0.0, SVG Export Plug-In . SVG Version: 6.00 Build 0)  -->
<svg version="1.1" id="Capa_1" xmlns="http://www.w3.org/2000/svg" xmlns:xlink="http://www.w3.org/1999/xlink" x="0px" y="0px"
	 viewBox="0 0 512 512" style="enable-background:new 0 0 512 512;" xml:space="preserve">
<path style="fill:#E89A6A;" d="M481,335v172c0,2.761-2.239,5-5,5h-30c-2.761,0-5-2.239-5-5v-27H71v27c0,2.761-2.239,5-5,5H36
	c-2.761,0-5-2.239-5-5V335c0-2.761,2.239-5,5-5h29h1h380h1h29C478.761,330,481,332.239,481,335z"/>
<path style="fill:#D3754F;" d="M481,335v172c0,2.761-2.239,5-5,5h-30c-2.76,0-4.998-2.237-5-4.997c0-0.001,0-0.002,0-0.003V335
	c0-2.761-2.239-5-5-5h10h1h29C478.761,330,481,332.239,481,335z M65,330H36c-2.761,0-5,2.239-5,5v172c0,2.761,2.239,5,5,5h30
	c2.76,0,4.998-2.237,5-4.997c0-0.001,0-0.002,0-0.003V335c0-2.761,2.239-5,5-5H66H65z"/>
<path style="fill:#D7AF87;" d="M477,230H35c-2.761,0-5-2.239-5-5V40C30,17.909,47.909,0,70,0h372c22.091,0,40,17.909,40,40v185
	C482,227.761,479.761,230,477,230z"/>
<path style="fill:#C49D7A;" d="M482,40v185c0,2.761-2.239,5-5,5h-32c2.761,0,5-2.239,5-5V40c0-22.091-17.909-40-40-40h32
	C464.091,0,482,17.909,482,40z"/>
<path style="fill:#F8DBB8;" d="M481,445H302.402c-14.909,0-29.793-1.232-44.499-3.683l-15.806-2.634
	c-14.706-2.451-29.59-3.683-44.499-3.683H31c-5.523,0-10-4.477-10-10v-60h470v70C491,440.523,486.523,445,481,445z"/>
<path style="fill:#EBC9A0;" d="M491,365v70c0,5.523-4.477,10-10,10h-41c5.523,0,10-4.477,10-10v-70H491z"/>
<path style="fill:#FAEDE0;" d="M431,40.476V151.94H256H81V40.476c0-4.065,4.278-6.709,7.914-4.891l28.907,14.454
	c4.556,2.278,9.58,3.464,14.674,3.464h72.008c5.094,0,10.118-1.186,14.674-3.464l28.907-14.454c3.636-1.818,7.914,0.826,7.914,4.891
	l0,0c0-4.065,4.278-6.709,7.914-4.891l28.907,14.454c4.556,2.278,9.58,3.464,14.674,3.464h72.008c5.094,0,10.118-1.186,14.674-3.464
	l28.907-14.454C426.722,33.766,431,36.41,431,40.476z"/>
<path style="fill:#FEF0FF;" d="M415,55c0,35.898-44.772,65-100,65c-0.221,0-0.441,0-0.661-0.001
	C282.018,119.862,256,93.357,256,61.035v-20.56c0-4.065,4.278-6.709,7.914-4.891l28.907,14.454c4.556,2.278,9.58,3.464,14.674,3.464
	h72.008c5.094,0,10.118-1.186,14.674-3.464l18.429-9.215C414.17,45.387,415,50.13,415,55z M219.178,50.038
	c-4.556,2.278-9.58,3.464-14.674,3.464h-72.008c-5.094,0-10.118-1.186-14.674-3.464L88.914,35.584C85.278,33.766,81,36.41,81,40.476
	v20.56c0,32.321,26.018,58.827,58.339,58.963C139.559,120,139.779,120,140,120c55.228,0,100-29.102,100-65
	c0-4.87-0.83-9.613-2.392-14.177L219.178,50.038z"/>
<g>
	<path style="fill:#FF8269;" d="M502,185v190c0,11.046-8.954,20-20,20H30c-11.046,0-20-8.954-20-20V185c0-27.614,22.386-50,50-50
		h392C479.614,135,502,157.386,502,185z"/>
	<path style="fill:#FF8269;" d="M492,194.667H20c-11.046,0-20-8.954-20-20V155c0-11.046,8.954-20,20-20h472c11.046,0,20,8.954,20,20
		v19.667C512,185.712,503.046,194.667,492,194.667z"/>
</g>
<g>
	<path style="fill:#FF5050;" d="M350.195,282.329C290.634,313.07,211.546,330,127.5,330c-4.142,0-7.5-3.358-7.5-7.5
		s3.358-7.5,7.5-7.5c81.697,0,158.342-16.336,215.815-46c40.57-20.94,67.897-46.606,79.841-74.333h16.123
		C427.292,227.952,396.702,258.325,350.195,282.329z M446.719,194.667C432.163,308.949,370.79,395,297.5,395h55.828
		c23.827-13.293,45.564-35.17,63.723-64.678c23.193-37.688,38.569-84.635,44.807-135.656h-15.139V194.667z"/>
	<path style="fill:#FF5050;" d="M502,191.969v25V375c0,11.046-8.954,20-20,20h-32c11.046,0,20-8.954,20-20V259.667
		c0-22.091-17.909-40-40-40H20c-3.647,0-7.056-0.992-10-2.697v-25c2.944,1.705,6.353,2.697,10,2.697h472
		C495.647,194.667,499.056,193.675,502,191.969z"/>
</g>
<path style="fill:#FFAF91;" d="M460,194.667H20c-11.046,0-20-8.954-20-20V155c0-11.046,8.954-20,20-20h440c11.046,0,20,8.954,20,20
	v19.667C480,185.712,471.046,194.667,460,194.667z"/>
<g>
</g>
<g>
</g>
<g>
</g>
<g>
</g>
<g>
</g>
<g>
</g>
<g>
</g>
<g>
</g>
<g>
</g>
<g>
</g>
<g>
</g>
<g>
</g>
<g>
</g>
<g>
</g>
<g>
</g>
</svg>
