<?xml version="1.0" encoding="iso-8859-1"?>
<!-- Generator: Adobe Illustrator 19.0.0, SVG Export Plug-In . SVG Version: 6.00 Build 0)  -->
<svg version="1.1" id="Capa_1" xmlns="http://www.w3.org/2000/svg" xmlns:xlink="http://www.w3.org/1999/xlink" x="0px" y="0px"
	 viewBox="0 0 512 512" style="enable-background:new 0 0 512 512;" xml:space="preserve">
<path style="fill:#80C56E;" d="M240.768,375.302h30.464c2.266-27.415,5.543-76.41,6.611-140.186C279.091,160.524,256,0,256,0
	s-23.091,160.524-21.843,235.116C235.225,298.892,238.502,347.886,240.768,375.302z"/>
<path style="fill:#9CD38C;" d="M240.768,375.302H256C258.266,347.886,256,0,256,0s-23.091,160.524-21.843,235.116
	C235.225,298.892,238.502,347.886,240.768,375.302z"/>
<path style="fill:#66AD66;" d="M300.943,375.302c5.31-38.63,9.796-77.416,14.721-116.047c8.638-67.756,8.147-137.246,12.728-205.487
	c-25.881,63.055-50.174,131.999-56.134,200.346c-3.488,39.998-4.989,80.767-2.755,121.188H300.943z"/>
<path style="fill:#5E9E5E;" d="M300.943,375.302c5.31-38.63,9.796-77.416,14.721-116.047c8.638-67.756,8.147-137.246,12.728-205.487
	c-25.881,63.055-46.61,281.113-44.376,321.535h16.927V375.302z"/>
<path style="fill:#66AD66;" d="M211.057,375.302h31.44c2.234-40.422,0.733-81.19-2.755-121.188
	c-5.96-68.348-30.253-137.292-56.134-200.346c4.581,68.241,4.09,137.731,12.728,205.487
	C201.261,297.886,205.748,336.672,211.057,375.302z"/>
<path style="fill:#5E9E5E;" d="M226.751,375.302h15.747c2.234-40.422,0.733-81.19-2.755-121.188
	c-5.96-68.348-30.253-137.292-56.134-200.346C196.269,124.278,217.413,218.103,226.751,375.302z"/>
<path style="fill:#80C56E;" d="M191.648,375.302h41.957c-1.925-16.386-4.675-32.614-8.128-48.538
	c-15.49-71.44-59.503-138.687-109.491-190.186c31.789,64.118,49.534,132.034,67.11,201.234
	C186.256,350.254,189.092,362.752,191.648,375.302z"/>
<path style="fill:#9CD38C;" d="M191.648,375.302h19.41c-4.216-38.382-45.084-187.224-95.072-238.723
	c31.789,64.118,49.534,132.034,67.11,201.234C186.256,350.254,189.092,362.752,191.648,375.302z"/>
<path style="fill:#80C56E;" d="M320.352,375.302c2.556-12.55,5.392-25.048,8.552-37.49c17.576-69.199,35.32-137.115,67.11-201.234
	c-49.987,51.499-94.001,118.745-109.491,190.186c-3.453,15.924-6.203,32.152-8.128,48.538L320.352,375.302L320.352,375.302z"/>
<path style="fill:#9CD38C;" d="M300.943,375.302c27.449-136.055,63.282-174.605,95.072-238.723
	c-49.987,51.499-94.001,118.745-109.491,190.186c-3.453,15.924-6.203,32.152-8.128,48.538h22.547V375.302z"/>
<path style="fill:#FEC37D;" d="M355.462,336.919H156.538c0,0-42.953,5.358-25.8,73.066c11.083,43.748,31.956,73.551,45.34,89.166
	c6.983,8.147,17.164,12.848,27.894,12.848h104.056c10.73,0,20.911-4.701,27.894-12.848c13.385-15.615,34.258-45.418,45.341-89.166
	C398.415,342.277,355.462,336.919,355.462,336.919z"/>
<path id="SVGCleanerId_0" style="fill:#F9AE5D;" d="M355.462,336.919h-54.358c0,0,42.953,5.358,25.801,73.066
	c-11.083,43.748-31.956,73.551-45.341,89.166C274.579,507.299,264.4,512,253.669,512h54.358c10.73,0,20.911-4.701,27.894-12.848
	c13.385-15.615,34.258-45.418,45.34-89.166C398.415,342.277,355.462,336.919,355.462,336.919z"/>
<path id="SVGCleanerId_1" style="fill:#F2A559;" d="M134.564,423.377l35.228,19.01l43.1-23.258l43.102,23.258l43.101-23.258
	l43.107,23.258l35.236-19.011c1.369-4.311,2.655-8.768,3.826-13.391c3.066-12.105,4.204-22.207,4.018-30.652l-43.079,16.904
	l-43.107-16.915l-43.101,16.915l-43.102-16.915l-43.1,16.915l-43.072-16.904c-0.187,8.445,0.951,18.547,4.018,30.652
	C131.908,414.608,133.194,419.066,134.564,423.377z"/>
<g>
	<path id="SVGCleanerId_0_1_" style="fill:#F9AE5D;" d="M355.462,336.919h-54.358c0,0,42.953,5.358,25.801,73.066
		c-11.083,43.748-31.956,73.551-45.341,89.166C274.579,507.299,264.4,512,253.669,512h54.358c10.73,0,20.911-4.701,27.894-12.848
		c13.385-15.615,34.258-45.418,45.34-89.166C398.415,342.277,355.462,336.919,355.462,336.919z"/>
</g>
<g>
	<path id="SVGCleanerId_1_1_" style="fill:#F2A559;" d="M134.564,423.377l35.228,19.01l43.1-23.258l43.102,23.258l43.101-23.258
		l43.107,23.258l35.236-19.011c1.369-4.311,2.655-8.768,3.826-13.391c3.066-12.105,4.204-22.207,4.018-30.652l-43.079,16.904
		l-43.107-16.915l-43.101,16.915l-43.102-16.915l-43.1,16.915l-43.072-16.904c-0.187,8.445,0.951,18.547,4.018,30.652
		C131.908,414.608,133.194,419.066,134.564,423.377z"/>
</g>
<path style="fill:#EA8F3D;" d="M382.438,404.987c0.247-1.124,0.479-2.233,0.691-3.32c0.033-0.17,0.071-0.344,0.103-0.513
	c0.243-1.27,0.461-2.513,0.659-3.733c0.034-0.208,0.064-0.413,0.096-0.62c0.172-1.096,0.327-2.174,0.464-3.23
	c0.018-0.141,0.038-0.284,0.056-0.425c0.307-2.456,0.521-4.806,0.648-7.053c0.004-0.064,0.008-0.128,0.011-0.192
	c0.125-2.293,0.161-4.481,0.115-6.567l-43.079,16.904l-11.869-4.657c-0.618,5.558-1.721,11.668-3.428,18.405
	c-1.852,7.309-3.981,14.22-6.299,20.75l21.596,11.652l35.236-19.011c0.318-1.001,0.631-2.013,0.939-3.03
	c0.056-0.185,0.111-0.37,0.167-0.555c0.267-0.887,0.53-1.779,0.788-2.678c0.136-0.472,0.268-0.949,0.402-1.425
	c0.189-0.671,0.378-1.341,0.562-2.02c0.329-1.217,0.654-2.443,0.968-3.682c0.343-1.354,0.654-2.675,0.949-3.98
	C382.289,405.664,382.364,405.326,382.438,404.987z"/>
<g>
</g>
<g>
</g>
<g>
</g>
<g>
</g>
<g>
</g>
<g>
</g>
<g>
</g>
<g>
</g>
<g>
</g>
<g>
</g>
<g>
</g>
<g>
</g>
<g>
</g>
<g>
</g>
<g>
</g>
</svg>
