<svg id="Capa_1" enable-background="new 0 0 512 512" height="512" viewBox="0 0 512 512" width="512" xmlns="http://www.w3.org/2000/svg"><g><path d="m203.357 479.589h105.287c35.505-15.936 59.686-47.484 59.686-83.804 0-52.385-50.292-94.852-112.329-94.852s-112.33 42.467-112.33 94.852c0 36.321 24.18 67.868 59.686 83.804z" fill="#c5d3dd"/><path d="m256 300.933c-6.982 0-13.812.542-20.441 1.572 52.277 8.117 91.888 46.79 91.888 93.28 0 36.321-24.181 67.868-59.686 83.804h40.883c35.505-15.936 59.686-47.484 59.686-83.804-.001-52.385-50.293-94.852-112.33-94.852z" fill="#b6c4cf"/><path d="m303.097 479.589h-94.193c-8.95 0-16.205 7.255-16.205 16.205 0 8.95 7.255 16.205 16.205 16.205h94.193c8.95 0 16.205-7.255 16.205-16.205 0-8.949-7.256-16.205-16.205-16.205z" fill="#9facba"/><g><path d="m340.232 409.314c-4.268 0-7.726-3.459-7.726-7.726v-125.594c0-4.267 3.459-7.726 7.726-7.726s7.726 3.459 7.726 7.726v125.593c.001 4.268-3.458 7.727-7.726 7.727z" fill="#465a61"/></g><path d="m283.887 307.785h-55.775c-8.779 0-15.895-7.117-15.895-15.895 0-8.779 7.117-15.895 15.895-15.895h55.775c8.779 0 15.895 7.116 15.895 15.895.001 8.779-7.116 15.895-15.895 15.895z" fill="#9facba"/><path d="m356.745 0h-201.49c-6.867 0-12.747 4.92-13.957 11.679l-44.363 247.636c-1.557 8.693 5.126 16.68 13.957 16.68h290.215c8.832 0 15.515-7.987 13.957-16.68l-44.362-247.636c-1.21-6.759-7.09-11.679-13.957-11.679z" fill="#fec165"/><path d="m415.065 259.315-44.363-247.636c-1.211-6.759-7.09-11.679-13.957-11.679h-40.883c6.867 0 12.746 4.92 13.957 11.679l44.362 247.635c1.557 8.693-5.126 16.68-13.957 16.68h40.883c8.832.001 15.515-7.986 13.958-16.679z" fill="#fdb441"/></g></svg>